<svg xmlns="http://www.w3.org/2000/svg" width="92" height="28" viewBox="0 0 92 28">
    <g fill="#010101">
        <path d="M11.005 16.508L.028 16.508.028 15.924 6.984 1.374.279 1.374.279.478 10.799.478 10.799 1.154 3.887 15.612 11.005 15.612zM17.635 16.508h-3.367V4.138c0-2.2-.185-2.983-1.287-3.29l-.018-.006V.478h4.667l.005 16.03zM31.145 16.508h-8.874V4.138c0-2.193-.185-2.977-1.287-3.29l-.018-.006V.478h4.674v15.134h5.51l-.005.896zM36.86 16.508h-3.364V4.138c0-2.2-.186-2.983-1.287-3.29L32.19.842V.478h4.667l.002 16.03zM53.868 16.508h-1.823l-.007-.01L42.39 2.98v13.528h-.895V4.138c0-2.2-.186-2.983-1.288-3.29l-.018-.006V.478h4.548l.007.011 8.185 11.55V.479h.94v16.03zM82.488 16.965c-2.665 0-4.95-.818-6.606-2.366-1.655-1.548-2.517-3.656-2.517-6.115 0-2.39.897-4.549 2.526-6.082C77.563.829 79.84 0 82.488 0c2.6 0 4.935.858 6.579 2.4 1.626 1.535 2.522 3.695 2.522 6.083 0 2.46-.869 4.575-2.514 6.115-1.644 1.539-3.93 2.367-6.587 2.367zm0-16.116c-1.63 0-2.983.72-3.911 2.086-.91 1.338-1.395 3.257-1.395 5.547 0 2.289.481 4.208 1.395 5.547.928 1.365 2.28 2.087 3.911 2.087 1.631 0 2.98-.722 3.901-2.087.902-1.336 1.379-3.254 1.379-5.547 0-2.294-.477-4.211-1.379-5.547C85.468 1.57 84.12.85 82.49.85zM67.924 12.597c0-2.2-.185-2.984-1.287-3.292h-.018v-.363h4.647c.021 5.77.022 6.785.022 6.951v.016l-.014.007c-1.307.62-3.558 1.054-5.47 1.054-2.691 0-4.953-.807-6.545-2.334-1.57-1.512-2.4-3.639-2.4-6.154 0-2.4.895-4.565 2.52-6.096 1.623-1.531 3.898-2.36 6.42-2.36 1.784 0 3.526.366 4.904 1.03l.014.008v3.24h-.342v-.016c-.346-1.04-.934-1.904-1.7-2.5-.768-.598-1.715-.919-2.688-.913-1.562 0-2.892.713-3.846 2.06-.966 1.363-1.48 3.283-1.48 5.55 0 2.269.512 4.2 1.48 5.562.952 1.341 2.283 2.05 3.846 2.05.668.003 1.329-.134 1.94-.403l-.003-3.097zM2.779 27.913C1.8 27.921.864 27.526.188 26.82l.563-.652c.265.279.58.506.929.67.346.166.725.253 1.11.253.486 0 .865-.11 1.136-.332.266-.21.416-.535.406-.873.004-.165-.028-.329-.096-.479-.062-.13-.15-.244-.26-.338-.118-.1-.248-.185-.387-.253-.15-.075-.313-.153-.484-.236l-1.06-.462c-.181-.08-.358-.17-.53-.27-.178-.105-.34-.234-.483-.384-.148-.156-.266-.338-.35-.536-.193-.482-.179-1.022.04-1.492.117-.24.282-.452.485-.624.216-.181.465-.32.733-.41.299-.101.613-.151.929-.148.423-.004.841.083 1.228.255.358.157.683.38.957.658l-.506.61c-.22-.212-.473-.386-.751-.512-.293-.127-.61-.19-.93-.186-.412 0-.744.096-.996.288-.25.186-.391.483-.378.794-.005.159.032.316.108.456.073.125.171.234.287.322.123.095.255.178.394.247.143.071.288.138.44.197l1.047.451c.206.088.406.191.597.31.18.11.343.247.484.405.138.158.247.34.322.536.295.783.072 1.666-.559 2.214-.232.2-.5.353-.788.451-.337.113-.691.169-1.046.163zM8.095 27.779L8.095 20.39 12.353 20.39 12.353 21.178 9.028 21.178 9.028 23.494 11.833 23.494 11.833 24.293 9.03 24.293 9.03 26.975 12.463 26.975 12.463 27.776zM15.383 27.779L15.383 20.39 16.318 20.39 16.318 26.979 19.551 26.979 19.551 27.779zM22.207 27.779L22.207 20.39 23.142 20.39 23.142 26.979 26.375 26.979 26.375 27.779zM29.035 27.779L29.035 20.39 33.293 20.39 33.293 21.178 29.968 21.178 29.968 23.494 32.772 23.494 32.772 24.293 29.971 24.293 29.971 26.975 33.404 26.975 33.404 27.776zM36.324 27.779v-7.39h2.308c.35-.002.7.034 1.042.108.296.061.576.182.823.355.23.166.414.387.536.644.136.303.201.633.191.965 0 .578-.15 1.04-.45 1.385-.322.358-.747.607-1.217.71l1.882 3.219H40.38l-1.78-3.117h-1.342v3.121h-.934zm.934-3.887h1.24c.577 0 1.02-.118 1.329-.355.308-.237.462-.594.462-1.073 0-.488-.154-.83-.462-1.025-.309-.195-.752-.293-1.33-.293h-1.239v2.746zM50.483 27.913c-.443.006-.882-.082-1.288-.258-.39-.174-.738-.43-1.019-.751-.304-.353-.534-.763-.676-1.206-.169-.522-.25-1.068-.242-1.616-.008-.543.076-1.084.248-1.6.147-.442.38-.852.686-1.205.287-.326.64-.585 1.037-.76.412-.18.857-.27 1.306-.266.413-.009.822.087 1.189.277.316.163.6.379.843.638l-.507.612c-.19-.206-.415-.378-.664-.507-.263-.13-.553-.196-.846-.192-.33-.004-.659.067-.958.209-.286.14-.537.344-.731.597-.214.281-.373.6-.468.94-.113.403-.168.82-.163 1.24-.006.424.05.847.163 1.255.094.342.249.665.456.953.187.256.432.464.715.608.296.146.622.22.952.215.328.009.654-.065.946-.215.288-.16.547-.367.766-.614l.518.586c-.276.325-.613.593-.991.789-.396.19-.833.283-1.272.271zM55.472 27.779L55.472 20.39 59.73 20.39 59.73 21.178 56.404 21.178 56.404 23.494 59.209 23.494 59.209 24.293 56.408 24.293 56.408 26.975 59.841 26.975 59.841 27.776zM62.759 27.779v-7.39h.965l2.67 4.641.8 1.532h.045l-.073-1.166c-.026-.4-.04-.798-.04-1.188V20.39h.89v7.389h-.966l-2.682-4.653-.8-1.52h-.044c.03.376.058.756.084 1.143.027.386.04.775.039 1.166v3.862l-.888.002zM72.932 27.779L72.932 21.178 70.697 21.178 70.697 20.39 76.104 20.39 76.104 21.178 73.878 21.178 73.878 27.779zM78.79 27.779v-7.39h2.313c.35-.002.7.034 1.042.108.295.061.575.182.822.355.23.166.415.387.536.644.136.303.202.633.192.965 0 .578-.15 1.04-.45 1.385-.322.358-.747.607-1.217.71l1.88 3.219H82.85l-1.78-3.121h-1.345v3.12l-.936.005zm.935-3.887h1.239c.579 0 1.022-.118 1.33-.355.307-.237.46-.594.46-1.073 0-.488-.153-.83-.46-1.025-.308-.195-.751-.293-1.33-.293h-1.24v2.746zM86.551 27.779L86.551 20.39 90.809 20.39 90.809 21.178 87.483 21.178 87.483 23.494 90.289 23.494 90.289 24.293 87.486 24.293 87.486 26.975 90.918 26.975 90.918 27.776z"/>
    </g>
</svg>
